<?xml version="1.0" encoding="utf-8"?>
<!-- Generator: Adobe Illustrator 16.0.0, SVG Export Plug-In . SVG Version: 6.00 Build 0)  -->
<!DOCTYPE svg PUBLIC "-//W3C//DTD SVG 1.1//EN" "http://www.w3.org/Graphics/SVG/1.1/DTD/svg11.dtd">
<svg version="1.1" xmlns="http://www.w3.org/2000/svg" xmlns:xlink="http://www.w3.org/1999/xlink" x="0px" y="0px" width="624px"
	 height="600px" viewBox="0 0 624 600" enable-background="new 0 0 624 600" xml:space="preserve">
<g id="text">
	<rect x="-151.152" y="321.23" fill="none" width="899.637" height="371.617"/>
	<text transform="matrix(1 0 0 1 -8.6021 425.2832)"><tspan x="0" y="0" fill="#808080" font-family="'AvenirNext-Heavy'" font-size="137.6361" letter-spacing="-8">BUS</tspan><tspan x="262.194" y="0" fill="#808080" font-family="'AvenirNext-Heavy'" font-size="137.6361" letter-spacing="-11">IN</tspan><tspan x="400.241" y="0" fill="#808080" font-family="'AvenirNext-Heavy'" font-size="137.6361" letter-spacing="-5">E</tspan><tspan x="477.729" y="0" fill="#808080" font-family="'AvenirNext-Heavy'" font-size="137.6361" letter-spacing="-11">S</tspan><tspan x="551.638" y="0" fill="#808080" font-family="'AvenirNext-Heavy'" font-size="137.6361" letter-spacing="-8">S</tspan><tspan x="628.3" y="0" fill="#808080" font-family="'AvenirNext-Heavy'" font-size="137.6361"> </tspan><tspan x="-11.055" y="175.416" fill="#808080" font-family="'AvenirNext-Heavy'" font-size="249.18">L</tspan><tspan x="125.744" y="175.416" fill="#808080" font-family="'AvenirNext-Heavy'" font-size="249.18" letter-spacing="-14">A</tspan><tspan x="304.153" y="175.416" fill="#808080" font-family="'AvenirNext-Heavy'" font-size="249.18" letter-spacing="-43">D</tspan><tspan x="456.65" y="175.416" fill="#808080" font-family="'AvenirNext-Heavy'" font-size="249.18" letter-spacing="-14">Y </tspan></text>
</g>
<g id="mouth">
	<g>
		<path fill="#FF7BAC" stroke="#000000" stroke-miterlimit="10" d="M373.1,175.701c0,0-1.035,13.556-6.365,21.653
			c0,0,4.488-22.026,1.057-29.112L373.1,175.701z"/>
		<path fill="#FF7BAC" stroke="#000000" stroke-miterlimit="10" d="M364.461,165.369c0,0,1.262,19.839-5.32,33.909
			c0,0,2.344-26.181-0.666-37.213L364.461,165.369z"/>
		<path fill="#FF7BAC" stroke="#000000" stroke-miterlimit="10" d="M358.152,162.064c0,0-0.824,17.981-9.534,39.744
			c0,0,4.575-30.163,0.485-43.322L358.152,162.064z"/>
		<path fill="#FF7BAC" stroke="#000000" stroke-miterlimit="10" d="M346.131,158.081c0,0,0.035,26.621-9.783,47.067
			c0,0,4.911-42.512,2.128-48.585L346.131,158.081z"/>
		<path fill="#FF7BAC" stroke="#000000" stroke-miterlimit="10" d="M338.071,156.562c0,0-7.93,24.496-9.14,47.473
			c0,0-5.237-21.256,1.488-48.384L338.071,156.562z"/>
		<path fill="#FF7BAC" stroke="#000000" stroke-miterlimit="10" d="M320.277,155.688c0,0-8.111,13.932-7.182,40.654
			c0,0-6.051-17.359-1.303-38.717L320.277,155.688z"/>
		<path fill="#FF7BAC" stroke="#000000" stroke-miterlimit="10" d="M320.277,155.688c-7.141,29.759,2.401,46.119,2.401,46.119
			c-2.901-25.963,7.31-46.156,7.31-46.156L320.277,155.688z"/>
		<path fill="#FF7BAC" stroke="#000000" stroke-miterlimit="10" d="M294.76,173.584c-0.452,9.565,3.299,16.078,3.299,16.078
			c0.982-15.791,2.682-24.663,2.682-24.663C296.741,169.125,294.76,173.584,294.76,173.584z"/>
		<path fill="#FF7BAC" stroke="#000000" stroke-miterlimit="10" d="M302.228,163.344c-1.065,2.33-0.202,25.832,4.035,29.202
			c-0.837-25.355,5.53-34.921,5.53-34.921S302.656,162.406,302.228,163.344z"/>
		<path fill="none" stroke="#000000" stroke-linecap="square" stroke-linejoin="bevel" stroke-miterlimit="10" d="M320.756,155.651
			c21.344-1.519,37.116,5.314,43.705,9.717c6.592,4.403,13.662,17.135,12.334,25.659c-2.104,13.514-12.078,21.314-23.438,26.873
			c-8.434,4.128-19.049,3.35-28.934,1.976c-18.283-2.54-37.221-18.22-34.747-30.973C292.152,176.148,299.41,157.169,320.756,155.651
			"/>
	</g>
</g>
<g id="drawing">
	<g>
		<path fill="none" stroke="#000000" stroke-width="2" stroke-linecap="round" stroke-linejoin="round" stroke-miterlimit="10" d="
			M208.64,217.605c0.007,1.882-1.445,1.099-2.241,1.082c-4.673-0.106-9.349-0.58-14.013-0.464
			c-7.382,0.182-14.603,1.737-21.878,2.928c-9.887,1.618-18.985,5.85-28.614,8.037c-9.359,2.127-18.639,4.827-28.258,5.849
			c-4.508,0.479-8.727,2.57-13.19,3.232c-7.882,1.171-13.448,5.638-18.213,11.562c-2.941,3.656-4.046,8.161-5.904,12.326
			c-3.76,8.432-5.804,17.454-9.057,26.033c-3.355,8.848-7.356,17.461-10.516,26.396c-3.556,10.052-8.921,19.363-11.841,29.687
			c-2.195,7.762-6.441,14.747-9.025,22.399c-0.711,2.104-0.979,4.085-1.014,6.202"/>
		
			<path fill-rule="evenodd" clip-rule="evenodd" fill="none" stroke="#000000" stroke-width="2" stroke-linecap="round" stroke-linejoin="round" stroke-miterlimit="10" d="
			M433.134,127.36c2.914-2.984,2.409-7.055,3.333-10.658c1.386-5.411,1.415-11.029,2.19-16.54c0.527-3.748-0.585-7.513-1.366-11.189
			c-1.195-5.628-1.515-11.455-3.862-16.833c-2.68-6.138-5.142-12.373-7.892-18.478c-2.901-6.441-7.802-10.943-14.266-13.743
			c-8.575-3.712-16.416-8.604-23.869-14.234c-3.354-2.533-6.483-5.445-10.109-7.512c-2.207-1.257-3.228-3.466-5.475-4.717
			c-8.469-4.714-17.154-8.479-26.967-9.163c-2.722-0.19-5.41-0.869-8.132-1.063c-6.466-0.463-12.287,2.04-17.571,5.156
			c-4.997,2.946-9.566,6.75-13.795,10.812c-3.753,3.606-6.588,7.632-7.495,13.119c-0.495,3.003-2.225,6.089-4.587,8.429
			c-4.449,4.406-8.023,9.562-11.886,14.428c-2.515,3.169-3.668,7.48-5.156,11.384c-1.25,3.278-2.206,6.681-3.105,10.078
			c-1.435,5.422-0.695,11.071-1.352,16.504c-1.038,8.593,0.584,17.474-2.616,25.802c-2.091,5.443-2.156,11.128-2.576,16.818
			c-0.298,4.029-0.785,8.073-1.596,12.06c-1.241,6.102-1.99,12.291-2.199,18.497c-0.285,8.418-2.958,16.304-4.781,24.39
			c-1.253,5.559-2.475,11.074-0.146,16.85c1.681,4.168-1.629,8.853-6.048,9.821c-0.596,0.131-2.006-0.167-1.694,1.347"/>
		
			<path fill-rule="evenodd" clip-rule="evenodd" fill="none" stroke="#000000" stroke-width="2" stroke-linecap="round" stroke-linejoin="round" stroke-miterlimit="10" d="
			M411.553,181.451c-1.547,2.505-1.402,5.375-1.654,8.13c-0.554,6.064-0.933,12.145-1.448,18.213
			c-0.135,1.592-0.852,3.072-1.555,4.47c-1.792,3.56-1.879,6.789,0.667,10.157c1.486,1.966,2.278,4.449,3.441,6.67
			c0.688,1.312,0.596,2.404-0.264,3.668c-2.731,4.017-4.552,8.521-5.713,13.169c-3.635,14.545-8.192,28.812-12.487,43.159
			c-0.944,3.153-2.464,6.217-1.546,9.821c0.493,1.934-1.443,3.589-1.934,5.562c-1.841,7.394-3.232,14.834-3.902,22.435
			c-0.38,4.321-1.283,8.596-1.907,12.897c-1.99,13.709-6.545,26.637-11.35,39.571c-3.191,8.588-6.521,17.127-9.713,25.716
			c-2.906,7.82-6.367,15.438-9.147,23.299c-3.103,8.774-7.063,17.248-9.312,26.322"/>
		
			<path fill-rule="evenodd" clip-rule="evenodd" fill="none" stroke="#000000" stroke-width="2" stroke-linecap="round" stroke-linejoin="round" stroke-miterlimit="10" d="
			M329.435,289.634c0.081,2.83-1.637,5.089-2.605,7.535c-3.48,8.791-7.639,17.3-11.152,26.087c-2.66,6.652-6.74,12.602-9.773,19.073
			c-3.584,7.647-6.648,15.495-9.324,23.517c-1.411,4.231-3.809,8.137-5.191,12.375c-2.683,8.224-6.747,15.88-9.485,24.071
			c-1.434,4.288-1.292,8.557-0.554,12.905c0.186,1.098,0.25,2.252,0.138,3.357c-0.588,5.794,0.461,11.44,1.424,17.099"/>
		
			<path fill-rule="evenodd" clip-rule="evenodd" fill="none" stroke="#000000" stroke-width="2" stroke-linecap="round" stroke-linejoin="round" stroke-miterlimit="10" d="
			M411.833,231.619c0.587,0.225,1.045,0.456,1.438,1.098c3.646,5.936,8.57,10.796,13.414,15.72c1.861,1.891,4.366,2.917,6.745,3.235
			c4.73,0.633,8.557,3.183,12.204,5.617c3.665,2.447,7.224,4.871,11.301,6.608c3.946,1.682,7.342,4.383,10.943,6.691
			c2.439,1.563,4.979,2.757,7.847,3.387c4.513,0.991,8.086,3.862,11.767,6.428c5.449,3.799,11.399,6.751,17.019,10.218
			c5.14,3.171,10.54,5.488,16.062,7.712c4.804,1.935,6.844,6.292,8.328,10.668c2.811,8.286,6.962,16.041,9.551,24.374
			c2.808,9.043,5.511,18.116,7.436,27.429c2.108,10.208,3.761,20.521,6.61,30.576c0.901,3.179,0.063,6.538,0.796,9.817
			c0.797,3.569,1.017,7.27,1.472,10.914c0.129,1.028,0.072,1.956-1.396,1.681"/>
		
			<path fill-rule="evenodd" clip-rule="evenodd" fill="none" stroke="#000000" stroke-width="2" stroke-linecap="round" stroke-linejoin="round" stroke-miterlimit="10" d="
			M411.553,177.808c0.33,1.136-0.888,2.68,1.111,3.391c3.453,1.227,5.552,1.35,6.628-0.919c2.388-5.033,6.09-9.106,9.013-13.723
			c2.544-4.018,3.514-8.661,4.021-13.408c0.572-5.352,1.244-10.695,2.312-15.986c0.619-3.067,0.417-6.425-1.369-8.855
			c-1.545-2.104-4.271-3.373-6.533-4.941c-3.864-2.679-7.594-3.275-12.135-1.709c-5.025,1.733-8.106-0.498-10.091-6.054
			c-1.024-2.868-1.003-5.823-0.875-8.698c0.44-9.937,0.544-19.83-0.858-29.719c-0.562-3.96-0.8-7.95-2.146-11.767
			c-2.063-5.851-5.641-10.574-10.97-13.679c-6.215-3.622-11.887-8.181-18.739-10.725c-7.127-2.646-13.464-6.89-20.227-10.267
			c-4.524-2.259-9.314-3.812-14.522-4.396c-10.119-1.133-19.749,1.051-29.44,3.198c-2.81,0.623-5.349,2.406-8.408,1.959"/>
		
			<path fill-rule="evenodd" clip-rule="evenodd" fill="none" stroke="#000000" stroke-width="2" stroke-linecap="round" stroke-linejoin="round" stroke-miterlimit="10" d="
			M297.765,31.508c-1.505-0.636-2.752-0.136-3.927,0.837c-3.65,3.023-7.823,5.073-12.333,6.438
			c-3.778,1.144-6.947,3.187-9.827,5.875c-5.833,5.442-10.325,11.68-11.86,19.647c-1.219,6.325-2.373,12.675-3.193,19.061
			c-0.724,5.637,1.127,11.115,2.339,16.493c1.65,7.324,2.835,14.793,5.394,21.916c0.526,1.462,1.208,2.469,2.579,3.063"/>
		
			<path fill-rule="evenodd" clip-rule="evenodd" fill="none" stroke="#000000" stroke-width="2" stroke-linecap="round" stroke-linejoin="round" stroke-miterlimit="10" d="
			M390.253,295.52c-0.954-0.119-1.841-0.46-2.514-1.13c-7.214-7.183-14.44-14.354-21.039-22.124
			c-0.609-0.718-1.177-1.439-1.71-2.225c-1.481-2.18-2.244-2.219-4.166-0.587c-4.295,3.646-8.521,7.38-12.928,10.887
			c-1.806,1.438-1.397,3.015-0.764,4.512c2.515,5.931,2.63,12.337,3.918,18.507c1.493,7.149,1.189,14.404,1.233,21.589
			c0.048,7.746-0.094,15.533-1.149,23.278c-0.386,2.829-0.674,5.749-0.755,8.669c-0.271,9.815-1,19.617-1.286,29.432
			c-0.278,9.524-0.245,19.058-0.313,28.586c-0.042,5.736-0.58,11.428-1.408,17.097"/>
		
			<path fill-rule="evenodd" clip-rule="evenodd" fill="none" stroke="#000000" stroke-width="2" stroke-linecap="round" stroke-linejoin="round" stroke-miterlimit="10" d="
			M282.63,239.747c-1.53,1.227-1.624,3.272-1.818,4.782c-0.716,5.565-3.45,10.604-3.823,16.235
			c-0.303,4.562-1.458,9.007-2.495,13.452c-0.37,1.585-1.094,2.902-2.123,4.288c-2.252,3.033-2.567,6.892-2.875,10.572
			c-0.425,5.091-1.435,10.091-2.219,15.118c-0.583,3.735-1.099,7.497-1.367,11.23c-0.637,8.854-1.206,17.716-1.362,26.616
			c-0.145,8.214-0.33,16.447-0.617,24.668c-0.235,6.698-0.978,13.289-1.94,19.911c-0.751,5.168-1.81,10.416-1.169,15.674
			c0.671,5.506,0.302,11.099,1.58,16.554c0.332,1.417,0.114,2.981,0.034,4.472c-0.105,1.939,0.199,3.795,0.857,5.606"/>
		
			<path fill-rule="evenodd" clip-rule="evenodd" fill="none" stroke="#000000" stroke-width="2" stroke-linecap="round" stroke-linejoin="round" stroke-miterlimit="10" d="
			M405.947,220.688c-2.897,1.794-3.942,5.065-5.774,7.646c-3.537,4.98-7.609,9.226-12.715,12.546
			c-3.298,2.145-5.897,5.215-9.269,7.254c-5.392,3.262-11.239,5.572-17.1,7.829c-0.42,0.161-0.764,0.318-1.112,0.59
			c-5.569,4.33-11.875,2.111-17.93,1.939c-2.906-0.082-5.806-0.621-8.689,0.172"/>
		
			<path fill-rule="evenodd" clip-rule="evenodd" fill="none" stroke="#000000" stroke-width="2" stroke-linecap="round" stroke-linejoin="round" stroke-miterlimit="10" d="
			M249.839,217.746c-1.985-0.532-4.216-0.155-5.93-1.774c-0.346-0.326-1.274-0.126-1.916-0.035
			c-5.421,0.772-10.874,1.394-16.248,2.419c-5.73,1.093-11.397,1.275-17.106,0.09"/>
		
			<path fill-rule="evenodd" clip-rule="evenodd" fill="none" stroke="#000000" stroke-width="2" stroke-linecap="round" stroke-linejoin="round" stroke-miterlimit="10" d="
			M377.36,110.544c-0.374,0-0.879,0.16-1.102-0.024c-4.937-4.073-11.238-5.19-16.848-7.797c-2.409-1.12-4.917-2.006-7.547-2.586
			c-2.978-0.657-5.41,0.165-7.295,2.84"/>
		
			<path fill-rule="evenodd" clip-rule="evenodd" fill="none" stroke="#000000" stroke-width="2" stroke-linecap="round" stroke-linejoin="round" stroke-miterlimit="10" d="
			M307.014,261.327c-0.918-0.859-1.663-1.852-2.783-2.554c-7.112-4.459-13.201-10.052-18.245-16.779
			c-1.355-1.809-3.561-2.664-4.379-5.273c-0.703-2.239-2.735-4.291-4.638-5.875c-3.433-2.857-6.058-6.373-8.549-9.935
			c-2.114-3.023-4.595-5.76-6.576-8.882c-0.763-1.203-1.876-2.281-3.317-2.832"/>
		
			<path fill-rule="evenodd" clip-rule="evenodd" fill="none" stroke="#000000" stroke-width="2" stroke-linecap="round" stroke-linejoin="round" stroke-miterlimit="10" d="
			M333.078,259.646c0.024-0.479,0.11-1.126-0.56-1.101c-6.131,0.242-12.103-1.638-18.216-1.377c-1.852,0.079-3.566,0.66-4.806,2.451
			c-3.609,5.215-8.407,9.251-13.72,12.599c-5.228,3.293-9.534,7.663-14.266,11.534c-0.69,0.564-1.157,1.476-2.245,1.397"/>
		
			<path fill-rule="evenodd" clip-rule="evenodd" fill="none" stroke="#000000" stroke-width="2" stroke-linecap="round" stroke-linejoin="round" stroke-miterlimit="10" d="
			M308.415,262.168c2.629,1.669,4.668,3.894,6.471,6.428c3.278,4.606,7.887,8.003,11.48,12.339c1.382,1.667,2.226,3.289,1.737,5.631
			c-0.464,2.222,0.421,2.778,2.732,2.228"/>
		
			<path fill-rule="evenodd" clip-rule="evenodd" fill="none" stroke="#000000" stroke-width="2" stroke-linecap="round" stroke-linejoin="round" stroke-miterlimit="10" d="
			M367.831,121.754c-0.31-1.284-1.097-2.095-2.218-2.839c-3.272-2.173-6.547-4.419-10.671-4.122
			c-4.149,0.298-8.443-0.115-12.419,1.893c1.938,3.367,5.328,3.674,8.497,3.867c3.496,0.213,6.822,0.833,10.09,2.028
			c2.061,0.753,4.244,1.226,6.13-0.303c1.104-0.895,2.072-0.295,3.113-0.243"/>
		
			<path fill-rule="evenodd" clip-rule="evenodd" fill="none" stroke="#000000" stroke-width="2" stroke-linecap="round" stroke-linejoin="round" stroke-miterlimit="10" d="
			M309.536,97.091c0.048-0.795-0.381-0.961-1.113-1.153c-7.954-2.087-15.904-2.81-23.808,0.095
			c-0.778,0.287-1.516,0.102-2.299,0.414c-1.246,0.496-1.528,1.186-1.368,2.326"/>
		
			<path fill-rule="evenodd" clip-rule="evenodd" fill="none" stroke="#000000" stroke-width="2" stroke-linecap="round" stroke-linejoin="round" stroke-miterlimit="10" d="
			M303.931,114.187c-1.037-1.195-2.279-1.795-3.916-2.018c-2.894-0.394-5.696-1.562-8.697-0.788c-0.46,0.119-1.107,0.027-1.373,0.31
			c-2.365,2.519-5.69,1.25-8.436,2.216"/>
		
			<path fill-rule="evenodd" clip-rule="evenodd" fill="none" stroke="#000000" stroke-width="2" stroke-linecap="round" stroke-linejoin="round" stroke-miterlimit="10" d="
			M310.657,114.467c-3.577,0.492-7.003,1.299-10.416,2.689c-4.809,1.958-9.071,0.14-12.566-3.53"/>
		
			<path fill-rule="evenodd" clip-rule="evenodd" fill="none" stroke="#000000" stroke-width="2" stroke-linecap="round" stroke-linejoin="round" stroke-miterlimit="10" d="
			M356.341,259.085c0.61,2.399,2.948,3.424,4.245,5.297c0.808,1.166,1.909,2.111,1.92,3.672"/>
		
			<path fill-rule="evenodd" clip-rule="evenodd" fill="none" stroke="#000000" stroke-width="2" stroke-linecap="round" stroke-linejoin="round" stroke-miterlimit="10" d="
			M273.942,277.583c2.535,1.953,2.701,5.485,5.044,7.567c0.905,0.804-0.552,1.466-0.14,2.241"/>
		
			<path fill-rule="evenodd" clip-rule="evenodd" fill="none" stroke="#000000" stroke-width="2" stroke-linecap="round" stroke-linejoin="round" stroke-miterlimit="10" d="
			M270.298,426.965c-1.682,0.467-3.365,0.928-5.044,1.402c-2.328,0.658-3.703,2.275-4.485,4.483"/>
		
			<path fill-rule="evenodd" clip-rule="evenodd" fill="none" stroke="#000000" stroke-width="2" stroke-linecap="round" stroke-linejoin="round" stroke-miterlimit="10" d="
			M307.854,115.308c-0.281,1.181,1.248,1.868,0.841,3.083"/>
	</g>
	<g display="none">
		<g display="inline">
			<path fill="none" stroke="#000000" stroke-width="2" stroke-linecap="round" stroke-linejoin="round" stroke-miterlimit="10" d="
				M-336.52,295.014c-0.702-0.1-1.105,0.338-1.436,0.843c-2.088,3.194-4.079,6.457-6.265,9.583c-3.013,4.31-4.902,9.155-6.925,13.94
				c-1.238,2.927-2.449,5.875-3.454,8.888c-0.656,1.968-0.761,4.118-1.399,6.094c-0.904,2.797-0.529,5.721-1.121,8.541
				c-0.181,0.865,0.079,1.837,0.208,2.75c0.378,2.684,0.755,5.367,1.208,8.039c0.233,1.374,0.63,2.721,0.943,4.082
				c0.405,1.759,0.75,3.533,1.21,5.277c1.532,5.801,4.001,11.236,6.437,16.698c2.254,5.053,5.141,9.752,7.744,14.608
				c1.06,1.977,2.434,3.787,3.708,5.645c0.196,0.285,0.623,0.412,0.942,0.611"/>
			
				<path fill-rule="evenodd" clip-rule="evenodd" fill="none" stroke="#000000" stroke-width="2" stroke-linecap="round" stroke-linejoin="round" stroke-miterlimit="10" d="
				M-154.12,233.214c-0.342,0.621-0.351,1.179-0.172,1.932c0.543,2.286,0.916,4.619,1.229,6.951
				c0.202,1.503,0.166,3.038,0.267,4.557c0.187,2.801,0.521,5.599,0.561,8.401c0.04,2.797-0.168,5.602-0.336,8.399
				c-0.146,2.443-0.387,4.881-0.589,7.32c-0.116,1.4-0.271,2.798-0.349,4.201c-0.055,0.997,0.018,2-0.018,3
				c-0.056,1.601-0.15,3.2-0.237,4.8c-0.009,0.162-0.033,0.352-0.123,0.475c-0.988,1.352-0.497,2.975-0.823,4.447
				c-0.254,1.148-0.437,2.314-0.605,3.479c-0.3,2.077-0.542,4.163-0.851,6.238c-0.459,3.083-0.833,6.186-1.463,9.235
				c-0.929,4.503-1.966,8.988-3.118,13.439c-0.95,3.673-2.127,7.288-3.215,10.926c-0.911,3.043-1.836,6.081-2.759,9.121
				c-0.596,1.961-1.155,3.935-1.81,5.877c-1.124,3.332-2.265,6.659-3.484,9.958c-0.97,2.625-2.009,5.229-3.126,7.796
				c-0.734,1.687-1.692,3.273-2.492,4.933c-1.072,2.225-1.997,4.525-3.161,6.698c-0.739,1.378-1.115,3.069-2.719,3.875
				c-0.144,0.072-0.198,0.377-0.244,0.584c-0.25,1.158-0.485,2.319-0.725,3.479"/>
			
				<path fill-rule="evenodd" clip-rule="evenodd" fill="none" stroke="#000000" stroke-width="2" stroke-linecap="round" stroke-linejoin="round" stroke-miterlimit="10" d="
				M-243.64,332.214c-0.482,0.158-0.877,0.407-0.472,0.953c0.677,0.911,0.577,1.978,0.721,3.005
				c0.247,1.766,0.496,3.533,0.853,5.277c0.201,0.984,0.752,1.902,0.912,2.889c0.365,2.267,0.631,4.552,0.839,6.838
				c0.061,0.664-0.31,1.357-0.316,2.038c-0.03,3.17,0.458,6.288,1.199,9.356c0.943,3.899,1.947,7.791,2.474,11.768
				c0.469,3.542,1.587,6.845,3.021,10.08c0.575,1.295,1.037,2.641,1.575,3.953c0.203,0.495,0.424,0.998,0.733,1.429
				c0.171,0.238,0.541,0.334,0.82,0.494c0.12-0.28,0.24-0.561,0.36-0.841"/>
			
				<path fill-rule="evenodd" clip-rule="evenodd" fill="none" stroke="#000000" stroke-width="2" stroke-linecap="round" stroke-linejoin="round" stroke-miterlimit="10" d="
				M-126.88,234.654c1.76,0.56,3.625,0.909,5.259,1.722c3.747,1.866,7.452,3.839,11.043,5.988c4.372,2.615,8.33,5.788,11.665,9.684
				c0.347,0.406,0.744,0.814,1.203,1.068c0.934,0.515,0.855,1.344,0.826,2.178c-0.016,0.441-0.085,0.879-0.113,1.32
				c-0.018,0.279,0.093,0.607-0.019,0.832c-0.679,1.372-0.951,2.786-0.849,4.33c0.1,1.523-0.222,2.964-0.726,4.468
				c-0.682,2.039-0.653,4.305-1.07,6.446c-0.471,2.417-1.066,4.812-1.668,7.202c-0.683,2.709-1.806,5.37-2.042,8.111
				c-0.222,2.566-1.259,4.92-1.362,7.489c-0.051,1.252-0.664,2.483-1.028,3.722c-0.235,0.801-0.496,1.596-0.715,2.401
				c-0.413,1.517-0.739,3.06-1.217,4.555c-0.913,2.855-2.061,5.644-2.823,8.536c-0.78,2.957-1.481,5.955-2.732,8.727
				c-1.634,3.619-2.535,7.453-3.804,11.178c-0.943,2.771-1.955,5.567-3.762,7.881c-0.959,1.229-1.778,2.446-2.378,3.869
				c-0.189,0.449-0.767,0.734-1.167,1.094"/>
			
				<path fill-rule="evenodd" clip-rule="evenodd" fill="none" stroke="#000000" stroke-width="2" stroke-linecap="round" stroke-linejoin="round" stroke-miterlimit="10" d="
				M-249.4,237.054c-0.04,0.36,0.056,0.846-0.142,1.06c-1.663,1.802-2.157,4.212-3.322,6.269c-0.421,0.743-0.655,1.591-0.977,2.391
				c-1.086,2.706-1.456,5.596-2.154,8.401c-0.825,3.314-1.619,6.636-2.401,9.96c-0.583,2.475-1.222,4.942-1.66,7.443
				c-0.543,3.102-0.865,6.242-1.364,9.353c-0.202,1.259-0.675,2.472-0.927,3.726c-0.334,1.669-0.598,3.354-0.848,5.038
				c-0.439,2.958-0.913,5.912-1.249,8.881c-0.447,3.953-0.75,7.92-1.168,11.876c-0.216,2.047-0.551,4.081-0.825,6.122
				c-0.026,0.196-0.06,0.42,0.005,0.596c0.688,1.86-0.255,3.611-0.43,5.397c-0.236,2.424-0.892,4.808-1.382,7.205
				c-0.263,1.284-0.649,2.549-0.815,3.844c-0.245,1.909-0.329,3.839-0.521,5.756c-0.021,0.214-0.301,0.401-0.461,0.602"/>
			
				<path fill-rule="evenodd" clip-rule="evenodd" fill="none" stroke="#000000" stroke-width="2" stroke-linecap="round" stroke-linejoin="round" stroke-miterlimit="10" d="
				M-78.88,283.253c0.4,0.52,0.933,0.985,1.175,1.57c0.786,1.893,1.52,3.812,2.172,5.754c1.124,3.345,2.138,6.728,3.262,10.073
				c1.049,3.122,1.289,6.385,1.792,9.603c0.355,2.281,0.807,4.552,1.048,6.844c0.162,1.543,0.031,3.117,0.031,4.677
				c0,0.32,0.009,0.641-0.001,0.96c-0.118,3.36-0.115,6.73-0.389,10.077c-0.368,4.497-1.057,8.967-2.279,13.314
				c-0.933,3.321-1.989,6.625-3.252,9.832c-1.165,2.957-2.709,5.763-4.031,8.66c-2.079,4.557-4.95,8.606-7.914,12.606
				c-0.631,0.852-1.431,1.311-2.413,1.55"/>
			
				<path fill-rule="evenodd" clip-rule="evenodd" fill="none" stroke="#000000" stroke-width="2" stroke-linecap="round" stroke-linejoin="round" stroke-miterlimit="10" d="
				M-313.12,410.813c0.2-1.92,0.365-3.845,0.609-5.759c0.318-2.492,0.757-4.947,1.637-7.334c0.729-1.978,1.063-4.099,1.753-6.094
				c0.348-1.005,1.098-1.87,1.727-2.896c1.743,2.294,1.949,4.811,2.255,7.211c0.278,2.176,0.777,4.262,1.368,6.355
				c0.923,3.268,1.729,6.568,2.664,9.833c0.819,2.857,1.642,5.722,2.658,8.513c0.98,2.69,2.159,5.314,3.354,7.92
				c0.49,1.068,1.268,2.004,1.888,3.016c0.204,0.332,0.327,0.716,0.487,1.075"/>
			
				<path fill-rule="evenodd" clip-rule="evenodd" fill="none" stroke="#000000" stroke-width="2" stroke-linecap="round" stroke-linejoin="round" stroke-miterlimit="10" d="
				M-175.12,277.614c0.08,1.72,0.013,3.462,0.27,5.155c0.609,4.033,0.49,8.081,0.429,12.125c-0.057,3.681-0.301,7.36-0.457,11.04
				c-0.125,2.92-0.09,5.856-0.4,8.756c-0.36,3.36-0.454,6.715-0.449,10.084c0.003,2.56,0.032,5.127-0.139,7.679
				c-0.189,2.809-0.217,5.623-0.883,8.413c-0.809,3.391-1.396,6.852-1.792,10.314c-0.217,1.901-0.368,3.795-0.905,5.632
				c-0.774,2.647-1.648,5.267-2.37,7.928c-0.371,1.365-0.481,2.799-0.749,4.193c-0.337,1.765-0.752,3.515-1.061,5.283
				c-0.193,1.107-0.307,2.235-0.35,3.358c-0.02,0.515,0.216,1.039,0.336,1.56"/>
			
				<path fill-rule="evenodd" clip-rule="evenodd" fill="none" stroke="#000000" stroke-width="2" stroke-linecap="round" stroke-linejoin="round" stroke-miterlimit="10" d="
				M-317.2,272.574c-0.08,0.6,0.006,1.292-0.268,1.785c-1.396,2.509-2.366,5.167-3.108,7.931c-0.435,1.623-1.261,3.173-1.476,4.813
				c-0.206,1.569-0.586,3.059-1.033,4.549c-1.018,3.391-1.875,6.816-2.396,10.322c-0.434,2.921-0.976,5.829-1.292,8.763
				c-0.322,2.987-0.668,6.007-0.545,8.994c0.088,2.134-0.868,4.127-0.456,6.246c0.104,0.533-0.102,1.178,0.734,1.257"/>
			
				<path fill-rule="evenodd" clip-rule="evenodd" fill="none" stroke="#000000" stroke-width="2" stroke-linecap="round" stroke-linejoin="round" stroke-miterlimit="10" d="
				M-304.72,261.414c0.791,1.072,0.114,2.172-0.174,3.103c-1.231,3.972-1.91,8.037-2.469,12.136
				c-0.339,2.483-0.804,4.952-1.051,7.443c-0.237,2.388-0.268,4.797-0.384,7.197c-0.202,4.16-0.417,8.319-0.592,12.481
				c-0.057,1.357,0.022,2.72-0.018,4.079c-0.04,1.361-0.162,2.72-0.227,4.08c-0.028,0.599,0.012,1.2-0.008,1.8
				c-0.072,2.16-0.207,4.32-0.22,6.48c-0.009,1.479,0.186,2.959,0.206,4.44c0.012,0.838-0.238,1.683-0.207,2.519
				c0.117,3.042,0.322,6.08,0.454,9.121c0.054,1.237-0.098,2.491,0.032,3.718c0.239,2.248,0.645,4.479,0.928,6.723
				c0.242,1.915,0.313,3.855,0.636,5.755c0.316,1.86,0.844,3.687,1.298,5.523c0.17,0.688,0.434,1.353,0.587,2.043
				c0.383,1.715,0.678,3.45,1.114,5.151c0.154,0.603,0.481,1.32,0.96,1.647c1.074,0.732,1.134,1.706,1.053,2.799"/>
			
				<path fill-rule="evenodd" clip-rule="evenodd" fill="none" stroke="#000000" stroke-width="2" stroke-linecap="round" stroke-linejoin="round" stroke-miterlimit="10" d="
				M-124.96,247.374c-0.542,0.533-0.667,1.124-0.64,1.921c0.076,2.196,0.007,4.401-0.105,6.597c-0.04,0.769-0.475,1.511-0.555,2.284
				c-0.217,2.074-0.332,4.158-0.505,6.237c-0.04,0.483-0.217,0.96-0.222,1.44c-0.012,1.164-0.369,2.249,0.122,3.521
				c0.401,1.039-0.137,2.439-0.253,3.679c-0.322,3.44-0.553,6.891-0.987,10.316c-0.397,3.136-0.991,6.248-1.542,9.362
				c-0.355,2.008-1.035,3.99-1.123,6.004c-0.087,1.99-0.387,3.926-0.675,5.875c-0.208,1.405-0.626,2.795-0.683,4.202
				c-0.128,3.219-1.392,6.117-2.289,9.126c-0.334,1.119-0.358,2.329-0.638,3.469c-0.329,1.338-0.637,2.713-1.213,3.95
				c-1.288,2.767-2.262,5.657-3.481,8.453c-1.784,4.09-2.925,8.456-4.43,12.674c-0.588,1.646-1.452,3.193-2.129,4.812
				c-0.645,1.541-1.117,3.161-1.844,4.659c-0.438,0.901-0.882,1.816-1.831,2.493c-0.609,0.434-0.704,1.601-1.011,2.444
				c-0.216,0.595-0.403,1.199-0.603,1.799"/>
			
				<path fill-rule="evenodd" clip-rule="evenodd" fill="none" stroke="#000000" stroke-width="2" stroke-linecap="round" stroke-linejoin="round" stroke-miterlimit="10" d="
				M-274,397.014c0.36,0.92,0.872,1.811,1.055,2.765c1.074,5.606,2.413,11.151,4.273,16.538c1.054,3.053,2.519,5.973,3.929,8.889
				c2.257,4.671,4.627,9.287,6.933,13.934c0.12,0.24,0.09,0.555,0.13,0.835"/>
			
				<path fill-rule="evenodd" clip-rule="evenodd" fill="none" stroke="#000000" stroke-width="2" stroke-linecap="round" stroke-linejoin="round" stroke-miterlimit="10" d="
				M-148.96,250.854c0.71,0.785,0.829,1.773,0.961,2.76c0.478,3.561,0.662,7.194,1.523,10.66c0.852,3.427,1.278,6.845,1.502,10.339
				c0.195,3.048,0.676,6.077,0.915,9.123c0.21,2.673,0.316,5.358,0.364,8.039c0.061,3.319,0.001,6.64,0.02,9.959
				c0.01,1.721,0.163,3.444,0.086,5.159c-0.061,1.366-0.395,2.718-0.567,4.081c-0.415,3.278-0.766,6.565-1.215,9.839
				c-0.473,3.446-1.071,6.876-1.535,10.323c-0.316,2.35-0.461,4.722-0.747,7.076c-0.171,1.408-0.507,2.796-0.698,4.203
				c-0.277,2.035-0.453,4.084-0.739,6.117c-0.339,2.406-0.791,4.796-1.109,7.204c-0.114,0.862,0.019,1.757,0.039,2.638"/>
			
				<path fill-rule="evenodd" clip-rule="evenodd" fill="none" stroke="#000000" stroke-width="2" stroke-linecap="round" stroke-linejoin="round" stroke-miterlimit="10" d="
				M-96.64,254.813c0.44,0.28,0.958,0.485,1.308,0.852c3.361,3.528,6.264,7.395,8.939,11.478c2.449,3.737,4.181,7.794,6.069,11.793
				c0.428,0.907,0.835,1.826,1.188,2.764c0.137,0.364,0.173,0.804,0.124,1.193c-0.295,2.323-0.647,4.639-0.935,6.963
				c-0.083,0.669,0.055,1.366-0.024,2.037c-0.41,3.489-1.298,6.868-2.375,10.206c-0.443,1.374-0.896,2.777-1.057,4.2
				c-0.254,2.249-1.467,4.132-2.087,6.233c-0.218,0.738-0.521,1.456-0.836,2.16c-0.863,1.927-1.757,3.841-2.633,5.763
				c-0.438,0.961-0.419,2.151-1.328,2.871c-1.122,0.89-1.549,2.225-2.312,3.343c-0.576,0.844-0.894,1.736-1.013,2.669
				c-0.206,1.605-0.806,2.999-1.695,4.326c-0.556,0.829-0.975,1.75-1.453,2.631c-0.085,0.157-0.124,0.419-0.247,0.465
				c-1.459,0.549-1.31,1.845-1.434,3.015"/>
			
				<path fill-rule="evenodd" clip-rule="evenodd" fill="none" stroke="#000000" stroke-width="2" stroke-linecap="round" stroke-linejoin="round" stroke-miterlimit="10" d="
				M-225.52,300.894c0.34-2.04,0.663-4.083,1.024-6.119c0.483-2.723,1.099-5.427,1.468-8.165c0.402-2.983,0.615-5.994,0.859-8.997
				c0.202-2.477,0.282-4.963,0.504-7.438c0.159-1.767,0.49-3.518,0.699-5.282c0.341-2.877,0.594-5.767,0.982-8.637
				c0.321-2.371,0.746-4.729,1.195-7.08c0.429-2.25,0.91-4.492,1.44-6.719c0.507-2.133,1.108-4.243,1.669-6.363
				c0.032-0.122,0.13-0.249,0.111-0.359c-0.313-1.812,0.792-3.226,1.308-4.808c0.216-0.663,0.656-1.2,1.209-1.12
				c0.376,0.055,0.823,0.766,0.939,1.254c0.366,1.54,0.612,3.109,0.868,4.673c0.534,3.278,1.114,6.55,1.545,9.842
				c0.481,3.669,0.792,7.361,1.23,11.036c0.211,1.768,0.577,3.518,0.821,5.282c0.309,2.236,0.532,4.484,0.857,6.718
				c0.314,2.167,0.847,4.31,1.028,6.485c0.159,1.903-0.05,3.836-0.071,5.756c-0.006,0.56,0.106,1.12,0.107,1.68
				c0.009,5,0.011,10,0,15c-0.001,0.8-0.154,1.605-0.097,2.399c0.095,1.324,0.352,2.638,0.448,3.962
				c0.102,1.396,0.075,2.8,0.138,4.199c0.104,2.28,0.335,4.56,0.334,6.84c-0.003,4.12-0.191,8.24-0.205,12.36
				c-0.017,5.039,0.087,10.08,0.098,15.12c0.006,2.68-0.038,5.36-0.132,8.039c-0.028,0.805-0.37,1.594-0.441,2.402
				c-0.081,0.913-0.019,1.838-0.019,2.758c0,4.681,0.046,9.36-0.015,14.04c-0.049,3.801-0.198,7.602-0.363,11.399
				c-0.047,1.085-0.39,2.157-0.429,3.242c-0.023,0.634,0.287,1.278,0.447,1.919"/>
			
				<path fill-rule="evenodd" clip-rule="evenodd" fill="none" stroke="#000000" stroke-width="2" stroke-linecap="round" stroke-linejoin="round" stroke-miterlimit="10" d="
				M-235.78,413.573c0.78,2.601,1.385,5.27,2.383,7.783c1.392,3.507,3.007,6.932,4.66,10.326c1.33,2.733,2.9,5.35,4.269,8.065
				c0.36,0.716,0.802,0.867,1.469,0.825c3.2-0.199,6.401-0.38,9.599-0.608c1.563-0.111,3.121-0.312,4.681-0.471
				c4.056-0.412,8.075-0.982,12.009-2.132c2.072-0.604,4.298-0.712,6.333-1.403c2.101-0.715,4.287-1.04,6.382-1.735
				c2.064-0.686,4.169-1.252,6.233-1.94c2.136-0.713,4.232-1.542,6.366-2.264c5.229-1.768,10.424-3.609,15.371-6.1
				c1.15-0.579,2.467-0.826,3.707-1.227"/>
			
				<path fill-rule="evenodd" clip-rule="evenodd" fill="none" stroke="#000000" stroke-width="2" stroke-linecap="round" stroke-linejoin="round" stroke-miterlimit="10" d="
				M-214.12,230.214c-1.72,0.2-3.45,0.341-5.158,0.613c-2.688,0.429-5.366,0.928-8.041,1.435c-1.209,0.229-2.392,0.615-3.604,0.813
				c-1.227,0.201-2.481,0.227-3.716,0.387c-1.246,0.161-2.476,0.459-3.723,0.569c-0.975,0.085-1.354,0.376-1.481,1.457
				c-0.45,3.813-1.105,7.601-1.627,11.406c-0.333,2.433-0.611,4.875-0.841,7.319c-0.431,4.597-0.856,9.196-1.187,13.801
				c-0.137,1.91-0.007,3.838-0.026,5.758c-0.025,2.601-0.123,5.201-0.103,7.8c0.02,2.56,0.124,5.121,0.235,7.68
				c0.08,1.842,0.226,3.681,0.354,5.52c0.153,2.201,0.388,4.398,0.458,6.601c0.061,1.917-0.067,3.839-0.097,5.76
				c-0.047,2.96-0.189,5.923-0.098,8.879c0.151,4.923,0.4,9.845,0.715,14.76c0.221,3.446,0.648,6.879,0.913,10.323
				c0.042,0.545-0.292,1.118-0.452,1.678"/>
			
				<path fill-rule="evenodd" clip-rule="evenodd" fill="none" stroke="#000000" stroke-width="2" stroke-linecap="round" stroke-linejoin="round" stroke-miterlimit="10" d="
				M-93.64,365.094c-0.28,1.08-0.523,2.171-0.848,3.237c-0.612,2.009-1.237,4.015-1.92,6c-1.008,2.931-2.065,5.845-3.116,8.761
				c-0.292,0.811-0.661,1.593-0.951,2.403c-0.656,1.835-1.309,3.671-1.906,5.524c-0.128,0.398-0.019,0.874-0.019,1.314"/>
			
				<path fill-rule="evenodd" clip-rule="evenodd" fill="none" stroke="#000000" stroke-width="2" stroke-linecap="round" stroke-linejoin="round" stroke-miterlimit="10" d="
				M-278.68,247.974c-1.766-0.3-3.109,0.8-4.546,1.469c-2.251,1.05-4.343,2.464-6.633,3.402c-2.329,0.954-4.273,2.498-6.461,3.646
				c-2.075,1.089-4.158,2.163-6.24,3.24c-0.111,0.058-0.26,0.055-0.356,0.126c-2.316,1.726-5.067,2.936-6.92,5.191
				c-1.528,1.859-3.459,3.119-5.298,4.556c-0.672,0.525-1.066,1.407-1.583,2.129c-0.168,0.234-0.267,0.598-0.49,0.701
				c-2.2,1.017-3.237,3.173-4.796,4.814c-0.896,0.943-1.875,1.809-2.748,2.771c-1.827,2.016-3.529,4.15-5.43,6.091
				c-2.065,2.109-3.529,4.638-5.271,6.972c-0.636,0.853-0.837,1.687-0.759,2.773c0.095,1.304-0.078,2.658-0.333,3.952
				c-0.516,2.622-0.861,5.25-0.959,7.923c-0.065,1.762-0.301,3.498-0.129,5.284c0.346,3.59,0.436,7.204,0.78,10.794
				c0.205,2.135,0.697,4.242,1.05,6.363c0.366,2.199,0.664,4.411,1.095,6.597c0.582,2.952,0.783,5.995,2.115,8.778
				c0.218,0.455-0.136,1.172,0.058,1.654c1.405,3.493,2.045,7.19,2.987,10.807c0.299,1.15,0.714,2.265,1.777,3.017
				c0.799,0.564,1.003,1.532,1.316,2.392c0.298,0.819,0.493,1.676,0.732,2.516"/>
			
				<path fill-rule="evenodd" clip-rule="evenodd" fill="none" stroke="#000000" stroke-width="2" stroke-linecap="round" stroke-linejoin="round" stroke-miterlimit="10" d="
				M-185.56,227.333c0.941-0.669,2.054-0.657,3.121-0.705c2.838-0.125,5.685-0.321,8.518-0.221
				c4.165,0.146,8.322,0.522,12.481,0.807c1.601,0.11,3.206,0.188,4.799,0.369c3.204,0.364,6.423,0.666,9.594,1.226
				c2.871,0.507,5.701,1.271,8.523,2.017c3.574,0.945,7.127,1.972,10.676,3.011c0.333,0.098,0.745,0.496,0.818,0.822
				c0.495,2.188,0.959,4.385,1.331,6.596c0.252,1.505,0.362,3.035,0.487,4.558c0.057,0.693,0.188,1.284,0.708,1.821
				c0.356,0.367,0.549,0.921,0.734,1.421c0.662,1.792,1.302,3.593,1.915,5.401c0.097,0.287,0.013,0.636,0.013,0.956"/>
			
				<path fill-rule="evenodd" clip-rule="evenodd" fill="none" stroke="#000000" stroke-width="2" stroke-linecap="round" stroke-linejoin="round" stroke-miterlimit="10" d="
				M-238.06,403.254c-1.202,0.755-1.068,2.146-1.461,3.254c-0.519,1.463-0.808,3.017-1.109,4.548
				c-0.595,3.033-1.53,6.068-1.601,9.12c-0.122,5.232,0.271,10.479,0.536,15.717c0.077,1.528,0.455,3.041,0.695,4.561"/>
			
				<path fill-rule="evenodd" clip-rule="evenodd" fill="none" stroke="#000000" stroke-width="2" stroke-linecap="round" stroke-linejoin="round" stroke-miterlimit="10" d="
				M-168.64,428.813c0.04-0.32-0.019-0.7,0.135-0.951c2.282-3.72,4.234-7.604,5.862-11.65c1.219-3.03,2.5-6.07,2.732-9.36
				c0.253-3.572,1.796-6.826,2.3-10.319c0.298-2.071,0.507-4.157,0.724-6.239c0.117-1.116,0.148-2.241,0.261-3.358
				c0.025-0.249,0.226-0.481,0.346-0.721c0.22,0.16,0.566,0.275,0.641,0.486c0.654,1.868,1.466,3.714,1.831,5.643
				c0.546,2.885,0.801,5.827,1.118,8.752c0.251,2.314,0.336,4.648,0.637,6.955c0.196,1.504-0.088,3.138,1.032,4.462
				c0.231,0.272,0.252,0.782,0.25,1.182c-0.008,2.064-0.096,4.117-0.677,6.129c-0.133,0.459,0.129,1.031,0.208,1.551"/>
			
				<path fill-rule="evenodd" clip-rule="evenodd" fill="none" stroke="#000000" stroke-width="2" stroke-linecap="round" stroke-linejoin="round" stroke-miterlimit="10" d="
				M-239.92,234.654c-1.294-0.547-2.42,0.158-3.601,0.478c-3.119,0.846-6.255,1.629-9.355,2.538
				c-2.742,0.804-5.479,1.651-8.156,2.648c-3.158,1.177-6.243,2.55-9.373,3.805c-0.772,0.31-1.634,0.407-2.388,0.748
				c-1.744,0.787-3.468,1.626-5.15,2.536c-0.322,0.174-0.547,0.752-0.595,1.17c-0.178,1.554-0.253,3.118-0.385,4.677
				c-0.19,2.241-0.504,4.477-0.574,6.721c-0.124,3.958-0.069,7.92-0.155,11.879c-0.062,2.841-0.292,5.679-0.328,8.521
				c-0.026,2.119,0.214,4.24,0.197,6.359c-0.016,1.961-0.346,3.922-0.313,5.88c0.088,5.321,0.299,10.641,0.448,15.961
				c0.011,0.398-0.073,0.799-0.113,1.199"/>
			
				<path fill-rule="evenodd" clip-rule="evenodd" fill="none" stroke="#000000" stroke-width="2" stroke-linecap="round" stroke-linejoin="round" stroke-miterlimit="10" d="
				M-187.72,294.174c0.806-0.003,0.482,0.624,0.461,0.958c-0.121,1.922-0.298,3.841-0.461,5.761c-0.157,1.841-0.28,3.685-0.49,5.519
				c-0.234,2.046-0.584,4.078-0.813,6.123c-0.097,0.869,0.014,1.76-0.021,2.639c-0.117,2.918-0.526,5.787-1.162,8.647
				c-0.632,2.846-0.961,5.758-1.483,8.631c-0.431,2.368-1.016,4.711-1.41,7.085c-0.336,2.023-0.381,4.1-0.767,6.111
				c-0.618,3.22-1.436,6.4-2.126,9.606c-0.67,3.113-1.279,6.24-1.935,9.357c-0.103,0.491-0.333,0.955-0.469,1.442
				c-1.006,3.599-1.974,7.207-3.014,10.796c-0.62,2.138-1.272,4.272-2.064,6.35c-0.351,0.92-0.994,1.776-1.67,2.51
				c-0.665,0.721-1.038,1.522-1.294,2.424c-0.139,0.489-0.237,1.021-0.96,0.84"/>
			
				<path fill-rule="evenodd" clip-rule="evenodd" fill="none" stroke="#000000" stroke-width="2" stroke-linecap="round" stroke-linejoin="round" stroke-miterlimit="10" d="
				M-279.58,321.653c0.14,2,0.256,4.003,0.427,6c0.168,1.963,0.428,3.917,0.584,5.881c0.232,2.918,0.42,5.839,0.604,8.76
				c0.105,1.679,0.09,3.367,0.265,5.037c0.193,1.85,0.526,3.685,0.826,5.521c0.17,1.045,0.464,2.074,0.567,3.124
				c0.057,0.583,0.211,1.05,0.469,1.576c0.355,0.724,0.542,1.571,0.619,2.383c0.228,2.393,0.794,4.688,1.554,6.967
				c0.572,1.716,0.683,3.609,1.404,5.246c0.86,1.955,0.786,4.402,2.819,5.79c0.064,0.044,0.094,0.151,0.121,0.235
				c0.562,1.76,1.122,3.52,1.682,5.279"/>
			
				<path fill-rule="evenodd" clip-rule="evenodd" fill="none" stroke="#000000" stroke-width="2" stroke-linecap="round" stroke-linejoin="round" stroke-miterlimit="10" d="
				M-119.44,406.373c-0.48,0.16-0.987,0.266-1.436,0.489c-2.689,1.342-5.349,2.743-8.049,4.062
				c-2.781,1.359-5.615,2.609-8.391,3.979c-2.983,1.473-5.917,3.045-8.888,4.543c-1.587,0.8-3.116,1.713-4.906,2.096
				c-0.598,0.128-1.286,0.697-0.978,1.633c0.087,0.265,0.087,0.558,0.127,0.838"/>
			
				<path fill-rule="evenodd" clip-rule="evenodd" fill="none" stroke="#000000" stroke-width="2" stroke-linecap="round" stroke-linejoin="round" stroke-miterlimit="10" d="
				M-187.24,225.894c1.037-0.171,1.159,0.878,1.499,1.363c0.652,0.932,0.927,2.123,1.384,3.196
				c1.431,3.357,2.214,6.901,2.984,10.444c0.623,2.866,1.105,5.763,1.703,8.635c0.41,1.97,0.974,3.91,1.352,5.886
				c0.348,1.823,0.541,3.676,0.798,5.516c0.402,2.88,0.799,5.76,1.201,8.64c0.073,0.521,0.159,1.041,0.239,1.561"/>
			
				<path fill-rule="evenodd" clip-rule="evenodd" fill="none" stroke="#000000" stroke-width="2" stroke-linecap="round" stroke-linejoin="round" stroke-miterlimit="10" d="
				M-286.48,251.333c0.243,0.504,0.435,0.918,0.153,1.574c-1.082,2.525-2.042,5.103-3.025,7.669
				c-0.176,0.458-0.266,0.953-0.364,1.438c-0.137,0.676-0.266,1.356-0.359,2.04c-0.176,1.278-0.231,2.58-0.504,3.835
				c-0.576,2.653-1.27,5.282-1.898,7.925c-0.731,3.077-1.539,6.141-2.129,9.246c-0.412,2.167-0.465,4.4-0.771,6.591
				c-0.181,1.294-0.548,2.562-0.82,3.843c-0.604,2.839-1.298,5.665-1.769,8.525c-0.331,2.013-0.275,4.085-0.534,6.112
				c-0.262,2.053-0.687,4.085-1.062,6.122c-0.427,2.322-0.933,4.632-1.302,6.963c-0.423,2.67-0.767,5.354-1.077,8.04
				c-0.109,0.947,0.029,1.92-0.026,2.877c-0.22,3.842-0.483,7.68-0.707,11.521c-0.109,1.878-0.221,3.759-0.234,5.64
				c-0.034,4.6-0.001,9.2-0.021,13.8c-0.003,0.641-0.149,1.279-0.229,1.92"/>
			
				<path fill-rule="evenodd" clip-rule="evenodd" fill="none" stroke="#000000" stroke-width="2" stroke-linecap="round" stroke-linejoin="round" stroke-miterlimit="10" d="
				M-274.36,396.773c-0.579,0.653-0.748,1.34-0.782,2.277c-0.118,3.206-0.495,6.403-0.78,9.603
				c-0.064,0.722,0.056,1.563-0.276,2.138c-1.242,2.149-1.084,4.563-1.527,6.861c-0.294,1.525-0.763,3.027-0.926,4.564
				c-0.267,2.508-0.552,5.045-0.452,7.555s0.663,5.002,1.023,7.502"/>
			
				<path fill-rule="evenodd" clip-rule="evenodd" fill="none" stroke="#000000" stroke-width="2" stroke-linecap="round" stroke-linejoin="round" stroke-miterlimit="10" d="
				M-328.48,389.214c1.586,1.11,1.1,2.794,1.202,4.319c0.152,2.281,0.085,4.607,0.529,6.83c0.775,3.877,1.925,7.678,2.791,11.539
				c0.234,1.044,0.473,2.018,1.117,2.871c0.121,0.16,0.21,0.417,0.365,0.466c2.349,0.743,3.589,2.925,5.51,4.224
				c1.231,0.832,2.402,1.757,3.613,2.62c0.106,0.076,0.313,0.011,0.473,0.011"/>
			
				<path fill-rule="evenodd" clip-rule="evenodd" fill="none" stroke="#000000" stroke-width="2" stroke-linecap="round" stroke-linejoin="round" stroke-miterlimit="10" d="
				M-94.12,363.533c-0.032,0.792,0.316,1.211,1.049,1.615c0.591,0.327,1.001,1.099,1.334,1.754c1.125,2.215,1.453,4.612,1.462,7.071
				c0.003,0.72-0.039,1.469,0.134,2.155c0.747,2.974-0.291,5.318-2.419,7.325c-2.243,2.116-4.483,4.237-6.717,6.363
				c-0.225,0.214-0.428,0.46-0.599,0.72c-0.563,0.856-1.198,1.57-2.278,1.826c-0.403,0.096-0.826,0.463-1.071,0.821
				c-1.91,2.8-4.701,4.611-7.344,6.578c-2.119,1.575-4.309,3.056-6.475,4.566c-0.336,0.233-0.699,0.451-1.081,0.595
				c-0.758,0.284-1.214,1.032-1.084,1.812c0.051,0.312,0.008,0.639,0.008,0.958"/>
			
				<path fill-rule="evenodd" clip-rule="evenodd" fill="none" stroke="#000000" stroke-width="2" stroke-linecap="round" stroke-linejoin="round" stroke-miterlimit="10" d="
				M-225.88,300.894c0.636-0.032,0.627,0.419,0.595,0.84c-0.191,2.521-0.392,5.04-0.597,7.561c-0.195,2.399-0.444,4.797-0.586,7.2
				c-0.139,2.356-0.15,4.721-0.258,7.079c-0.137,3.001-0.469,6.002-0.438,9c0.044,4.26-0.472,8.479-0.633,12.721
				c-0.062,1.639-0.049,3.281-0.131,4.919c-0.177,3.521-0.075,7.098-0.693,10.543c-0.5,2.791-0.122,5.55-0.491,8.299
				c-0.138,1.032-0.258,2.081-0.232,3.118c0.068,2.682,0.289,5.36,0.322,8.041c0.025,2.119-0.126,4.24-0.225,6.359
				c-0.045,0.981-0.101,1.969-0.252,2.938c-0.105,0.675-0.382,1.323-0.582,1.982"/>
			
				<path fill-rule="evenodd" clip-rule="evenodd" fill="none" stroke="#000000" stroke-width="2" stroke-linecap="round" stroke-linejoin="round" stroke-miterlimit="10" d="
				M-126.76,390.414c0.862-0.193,0.604,0.482,0.584,0.839c-0.083,1.521-0.111,3.061-0.367,4.557
				c-0.616,3.594-1.249,7.19-2.729,10.567c-0.533,1.217-0.988,2.47-1.438,3.721c-0.149,0.415-0.171,0.876-0.251,1.316"/>
			
				<path fill-rule="evenodd" clip-rule="evenodd" fill="none" stroke="#000000" stroke-width="2" stroke-linecap="round" stroke-linejoin="round" stroke-miterlimit="10" d="
				M-197.56,409.373c0.12,0.2,0.377,0.433,0.339,0.596c-0.529,2.287-1.187,4.548-1.641,6.849c-0.866,4.387-2.71,8.436-4.248,12.586
				c-0.925,2.497-2.084,4.913-3.242,7.315c-0.317,0.657-1.009,1.135-1.529,1.694"/>
			
				<path fill-rule="evenodd" clip-rule="evenodd" fill="none" stroke="#000000" stroke-width="2" stroke-linecap="round" stroke-linejoin="round" stroke-miterlimit="10" d="
				M-125.92,381.054c0.32,0.16,0.732,0.241,0.945,0.492c1.39,1.64,2.578,3.359,2.8,5.625c0.225,2.294,0.821,4.438,2.447,6.284
				c1.02,1.159,1.306,2.739,1.045,4.404c-0.221,1.412-0.155,2.874-0.144,4.314c0.007,0.92,0.146,1.84,0.227,2.76"/>
			
				<path fill-rule="evenodd" clip-rule="evenodd" fill="none" stroke="#000000" stroke-width="2" stroke-linecap="round" stroke-linejoin="round" stroke-miterlimit="10" d="
				M-186.4,226.614c-1.04,0.2-2.073,0.46-3.122,0.588c-2.596,0.316-5.197,0.582-7.799,0.849c-2.839,0.292-5.683,0.537-8.519,0.853
				c-1.686,0.188-3.364,0.451-5.04,0.722c-0.532,0.086-1.042,0.309-1.562,0.469"/>
			
				<path fill-rule="evenodd" clip-rule="evenodd" fill="none" stroke="#000000" stroke-width="2" stroke-linecap="round" stroke-linejoin="round" stroke-miterlimit="10" d="
				M-122.92,326.813c0.16,0.24,0.479,0.498,0.455,0.718c-0.195,1.725-0.51,3.437-0.683,5.163c-0.311,3.122-1.52,6.137-1.011,9.365
				c0.12,0.759-0.237,1.595-0.384,2.394c-0.044,0.243-0.203,0.495-0.164,0.718c0.273,1.584-0.035,3.13-0.253,4.683"/>
			
				<path fill-rule="evenodd" clip-rule="evenodd" fill="none" stroke="#000000" stroke-width="2" stroke-linecap="round" stroke-linejoin="round" stroke-miterlimit="10" d="
				M-224.32,440.453c-1.04,0.12-2.078,0.312-3.12,0.345c-1.838,0.057-3.68,0.045-5.52,0.009c-2.601-0.052-5.214-0.35-7.795-0.162
				c-1.647,0.119-3.292,0.204-4.924,0.139c-3.564-0.143-7.121-0.461-10.682-0.685c-1.718-0.108-3.449-0.083-5.158-0.266
				c-2.209-0.236-4.399-0.644-6.603-0.933c-2.356-0.31-4.72-0.563-7.079-0.85c-0.482-0.06-0.989-0.082-1.435-0.251
				c-1.515-0.574-3.152-0.405-4.684-0.831c-2.245-0.623-4.495-1.231-6.715-1.937c-0.918-0.291-1.713-0.971-2.767-0.825
				c-0.073,0.01-0.182-0.054-0.236-0.116c-1.642-1.915-4.267-1.647-6.269-2.835c-2.332-1.383-4.847-2.459-7.304-3.623
				c-0.333-0.157-0.791-0.829-1.19-0.02"/>
			
				<path fill-rule="evenodd" clip-rule="evenodd" fill="none" stroke="#000000" stroke-width="2" stroke-linecap="round" stroke-linejoin="round" stroke-miterlimit="10" d="
				M-328.36,388.493c-0.08,0.24-0.105,0.647-0.249,0.694c-1.422,0.466-1.591,1.778-2.201,2.879c-1.46,2.635-2.339,5.508-3.647,8.199
				c-0.212,0.436-0.088,1.029-0.148,1.548c-0.06,0.521-0.155,1.04-0.235,1.56"/>
			
				<path fill-rule="evenodd" clip-rule="evenodd" fill="none" stroke="#000000" stroke-width="2" stroke-linecap="round" stroke-linejoin="round" stroke-miterlimit="10" d="
				M-280.12,309.773c0.12,0.12,0.344,0.241,0.343,0.36c-0.005,0.72-0.109,1.44-0.095,2.159c0.061,2.921,0.145,5.841,0.252,8.76
				c0.006,0.166,0.3,0.32,0.46,0.48"/>
			
				<path fill-rule="evenodd" clip-rule="evenodd" fill="none" stroke="#000000" stroke-width="2" stroke-linecap="round" stroke-linejoin="round" stroke-miterlimit="10" d="
				M-334.36,402.653c0.48,0.48,1.018,0.915,1.43,1.448c2.359,3.04,4.967,5.829,8.055,8.145c0.237,0.178,0.555,0.247,0.834,0.367"/>
			
				<path fill-rule="evenodd" clip-rule="evenodd" fill="none" stroke="#000000" stroke-width="2" stroke-linecap="round" stroke-linejoin="round" stroke-miterlimit="10" d="
				M-185.02,248.454c0.658,4.628,0.246,9.279,0.304,13.92c0.007,0.521,0.051,1.044,0.136,1.557c0.018,0.104,0.299,0.164,0.459,0.244
				"/>
			
				<path fill-rule="evenodd" clip-rule="evenodd" fill="none" stroke="#000000" stroke-width="2" stroke-linecap="round" stroke-linejoin="round" stroke-miterlimit="10" d="
				M-121.6,255.773c0.28,0.68,0.741,1.343,0.807,2.043c0.21,2.231,0.236,4.479,0.403,6.716c0.2,2.683,0.478,5.36,0.707,8.041
				c0.1,1.159,0.229,2.32,0.23,3.48c0.004,2.48-0.283,4.981-0.045,7.434c0.234,2.407-0.216,4.727-0.317,7.085
				c-0.137,3.203-0.362,6.402-0.599,9.6c-0.065,0.887-0.338,1.757-0.451,2.643c-0.049,0.389,0.094,0.798,0.1,1.198
				c0.016,1.12,0.098,2.251-0.032,3.355c-0.068,0.585-0.675,1.1-0.771,1.689c-0.218,1.344-0.253,2.717-0.403,4.073
				c-0.036,0.33-0.228,0.642-0.348,0.962"/>
			
				<path fill-rule="evenodd" clip-rule="evenodd" fill="none" stroke="#000000" stroke-width="2" stroke-linecap="round" stroke-linejoin="round" stroke-miterlimit="10" d="
				M-195.64,398.334c0.28-0.08,0.56-0.16,0.84-0.24c0.041,0.199,0.14,0.409,0.111,0.599c-0.223,1.482-0.451,2.965-0.715,4.44
				c-0.383,2.141-1.008,4.215-1.796,6.24"/>
			
				<path fill-rule="evenodd" clip-rule="evenodd" fill="none" stroke="#000000" stroke-width="2" stroke-linecap="round" stroke-linejoin="round" stroke-miterlimit="10" d="
				M-194.44,398.334c1.311,0.844,1.437,2.309,1.778,3.605c1.176,4.465,2.516,8.91,3.298,13.448
				c0.592,3.431,2.034,6.743,1.747,10.305c-0.217,2.687-0.586,5.36-0.88,8.042c-0.044,0.396-0.043,0.799-0.063,1.199"/>
			
				<path fill-rule="evenodd" clip-rule="evenodd" fill="none" stroke="#000000" stroke-width="2" stroke-linecap="round" stroke-linejoin="round" stroke-miterlimit="10" d="
				M-120.76,307.733c1.103,1.095,0.679,2.477,0.566,3.717c-0.252,2.771-0.671,5.525-1.054,8.282
				c-0.156,1.126-0.386,2.242-0.594,3.36c-0.232,1.242-0.479,2.48-0.718,3.721"/>
			
				<path fill-rule="evenodd" clip-rule="evenodd" fill="none" stroke="#000000" stroke-width="2" stroke-linecap="round" stroke-linejoin="round" stroke-miterlimit="10" d="
				M-184.6,264.293c-0.16,2-0.327,4-0.478,6c-0.093,1.239-0.382,2.514-0.196,3.712c0.366,2.365-0.297,4.644-0.292,6.967
				c0,0.24-0.022,0.504-0.123,0.716c-1.104,2.334-0.748,4.878-1.067,7.324c-0.224,1.717-0.405,3.439-0.604,5.16"/>
			
				<path fill-rule="evenodd" clip-rule="evenodd" fill="none" stroke="#000000" stroke-width="2" stroke-linecap="round" stroke-linejoin="round" stroke-miterlimit="10" d="
				M-269.62,341.094c-0.06,1.72-0.131,3.439-0.177,5.16c-0.052,1.96-0.108,3.92-0.117,5.88c-0.019,3.76,0.085,7.522-0.04,11.278
				c-0.075,2.237,0.359,4.401,0.514,6.602"/>
			
				<path fill-rule="evenodd" clip-rule="evenodd" fill="none" stroke="#000000" stroke-width="2" stroke-linecap="round" stroke-linejoin="round" stroke-miterlimit="10" d="
				M-154.96,228.174c0.24,1.44,0.479,2.88,0.721,4.32c0.034,0.201,0.008,0.483,0.13,0.587c1.748,1.488,1.781,3.695,2.381,5.655
				c0.597,1.948,1.175,3.905,1.674,5.881c0.429,1.703,0.759,3.432,1.07,5.161c0.052,0.292,0.331,0.93-0.456,0.896"/>
			
				<path fill-rule="evenodd" clip-rule="evenodd" fill="none" stroke="#000000" stroke-width="2" stroke-linecap="round" stroke-linejoin="round" stroke-miterlimit="10" d="
				M-186.64,235.854c0.16,1.12,0.333,2.238,0.478,3.36c0.289,2.239,0.563,4.479,0.842,6.72c0.084,0.68,0.136,1.365,0.26,2.037
				c0.027,0.145,0.3,0.244,0.46,0.363"/>
			
				<path fill-rule="evenodd" clip-rule="evenodd" fill="none" stroke="#000000" stroke-width="2" stroke-linecap="round" stroke-linejoin="round" stroke-miterlimit="10" d="
				M-97.6,265.134c0.557,0.614,0.691,1.345,0.738,2.159c0.104,1.843,0.304,3.681,0.462,5.521c0.202,2.36,0.473,4.717,0.577,7.081
				c0.079,1.795-0.257,3.622-0.054,5.394c0.403,3.511-0.354,6.961-0.286,10.445c0.024,1.181,0.047,2.334,0.441,3.494
				c0.26,0.766,0.198,1.671,0.146,2.505c-0.107,1.724-0.318,3.439-0.46,5.161c-0.213,2.56-0.543,5.118-0.569,7.681
				c-0.035,3.47-0.151,6.899-0.826,10.329c-0.455,2.31-0.456,4.71-0.646,7.07c-0.097,1.199-0.211,2.399-0.222,3.601
				c-0.005,0.559,0.219,1.119,0.339,1.68"/>
			
				<path fill-rule="evenodd" clip-rule="evenodd" fill="none" stroke="#000000" stroke-width="2" stroke-linecap="round" stroke-linejoin="round" stroke-miterlimit="10" d="
				M-327.52,327.414c-0.12,2.279-0.23,4.561-0.379,6.838c-0.011,0.17-0.301,0.321-0.46,0.481"/>
			
				<path fill-rule="evenodd" clip-rule="evenodd" fill="none" stroke="#000000" stroke-width="2" stroke-linecap="round" stroke-linejoin="round" stroke-miterlimit="10" d="
				M-305.8,427.254c-1.906-1.695-4.042-3.029-6.36-4.08"/>
			
				<path fill-rule="evenodd" clip-rule="evenodd" fill="none" stroke="#000000" stroke-width="2" stroke-linecap="round" stroke-linejoin="round" stroke-miterlimit="10" d="
				M-327.4,341.214c-0.16,0.16-0.455,0.316-0.459,0.48c-0.037,1.438-0.052,2.88-0.013,4.319c0.045,1.681,0.173,3.359,0.227,5.04
				c0.063,1.999,0.079,4,0.129,6c0.017,0.681,0.137,1.363,0.099,2.039c-0.035,0.604-0.222,1.201-0.342,1.801"/>
			
				<path fill-rule="evenodd" clip-rule="evenodd" fill="none" stroke="#000000" stroke-width="2" stroke-linecap="round" stroke-linejoin="round" stroke-miterlimit="10" d="
				M-327.94,334.854c0.06,2.12,0.12,4.24,0.18,6.36"/>
			
				<path fill-rule="evenodd" clip-rule="evenodd" fill="none" stroke="#000000" stroke-width="2" stroke-linecap="round" stroke-linejoin="round" stroke-miterlimit="10" d="
				M-313.48,410.813c0.16,0.24,0.452,0.476,0.46,0.721c0.109,3.479,0.026,6.975,0.359,10.43c0.094,0.97,0.023,2.041,0.381,3.01"/>
			
				<path fill-rule="evenodd" clip-rule="evenodd" fill="none" stroke="#000000" stroke-width="2" stroke-linecap="round" stroke-linejoin="round" stroke-miterlimit="10" d="
				M-188.56,227.214c0.36,1.16,0.696,2.328,1.091,3.476c0.173,0.503,0.469,0.964,0.708,1.444"/>
			
				<path fill-rule="evenodd" clip-rule="evenodd" fill="none" stroke="#000000" stroke-width="2" stroke-linecap="round" stroke-linejoin="round" stroke-miterlimit="10" d="
				M-175.72,271.134c-0.664-0.096-0.529,0.41-0.466,0.717c0.332,1.646,0.69,3.287,1.079,4.92c0.095,0.4,0.24,0.711-0.372,0.663"/>
			
				<path fill-rule="evenodd" clip-rule="evenodd" fill="none" stroke="#000000" stroke-width="2" stroke-linecap="round" stroke-linejoin="round" stroke-miterlimit="10" d="
				M-237.88,402.414c-0.04,0.26-0.207,0.6-0.102,0.768c1.865,2.97,1.515,6.449,2.236,9.678c0.035,0.156-0.295,0.395-0.455,0.594"/>
			
				<path fill-rule="evenodd" clip-rule="evenodd" fill="none" stroke="#000000" stroke-width="2" stroke-linecap="round" stroke-linejoin="round" stroke-miterlimit="10" d="
				M-211.96,232.854c-0.841-0.042-1.342,0.427-1.818,1.066c-0.435,0.584-1.021,1.054-1.542,1.574"/>
			
				<path fill-rule="evenodd" clip-rule="evenodd" fill="none" stroke="#000000" stroke-width="2" stroke-linecap="round" stroke-linejoin="round" stroke-miterlimit="10" d="
				M-269.38,371.813c0.14,1.32,0.356,2.639,0.389,3.961c0.017,0.695-0.289,1.399-0.449,2.1"/>
			
				<path fill-rule="evenodd" clip-rule="evenodd" fill="none" stroke="#000000" stroke-width="2" stroke-linecap="round" stroke-linejoin="round" stroke-miterlimit="10" d="
				M-126.22,382.854c-0.447,2.045-0.064,4.08,0.048,6.121c0.024,0.435-0.108,0.879-0.168,1.319"/>
			
				<path fill-rule="evenodd" clip-rule="evenodd" fill="none" stroke="#000000" stroke-width="2" stroke-linecap="round" stroke-linejoin="round" stroke-miterlimit="10" d="
				M-185.44,228.534c-0.28,0.44-0.837,0.918-0.784,1.312c0.121,0.888-0.141,1.606-0.361,2.423c-0.242,0.895-0.036,1.906-0.071,2.864
				c-0.007,0.185-0.224,0.361-0.344,0.541"/>
			
				<path fill-rule="evenodd" clip-rule="evenodd" fill="none" stroke="#000000" stroke-width="2" stroke-linecap="round" stroke-linejoin="round" stroke-miterlimit="10" d="
				M-326.2,356.334c0,1.239,0.031,2.48-0.017,3.719c-0.017,0.444-0.223,0.881-0.343,1.321"/>
			
				<path fill-rule="evenodd" clip-rule="evenodd" fill="none" stroke="#000000" stroke-width="2" stroke-linecap="round" stroke-linejoin="round" stroke-miterlimit="10" d="
				M-97,254.454c-0.6,0.12-1.2,0.24-1.8,0.36"/>
			
				<path fill-rule="evenodd" clip-rule="evenodd" fill="none" stroke="#000000" stroke-width="2" stroke-linecap="round" stroke-linejoin="round" stroke-miterlimit="10" d="
				M-269.08,370.014c-0.944,0.011-0.318,0.672-0.319,0.96c-0.001,0.382,0.25,0.745-0.4,0.72"/>
			
				<path fill-rule="evenodd" clip-rule="evenodd" fill="none" stroke="#000000" stroke-width="2" stroke-linecap="round" stroke-linejoin="round" stroke-miterlimit="10" d="
				M-310.6,399.773c-0.2-0.24-0.4-0.479-0.6-0.72"/>
			
				<path fill-rule="evenodd" clip-rule="evenodd" fill="none" stroke="#000000" stroke-width="2" stroke-linecap="round" stroke-linejoin="round" stroke-miterlimit="10" d="
				M-206.44,276.414c0.12,0.28,0.24,0.56,0.36,0.84"/>
			
				<path fill-rule="evenodd" clip-rule="evenodd" fill="none" stroke="#000000" stroke-width="2" stroke-linecap="round" stroke-linejoin="round" stroke-miterlimit="10" d="
				M-123.4,256.374c0.709,0.393,0.932-0.285,1.32-0.6"/>
		</g>
	</g>
</g>
</svg>
