
Open SVG
Paste markup
Demo
Contribute
About
Powered by the incredible SVGO


IMAGE
CODE
4.44k - 71.51% saving
<svg xmlns="http://www.w3.org/2000/svg" width="624" height="600" viewBox="0 0 624 600">
  <path fill="none" d="M-151.152 321.23h899.637v371.617h-899.637z"/>
  <text transform="translate(-8.602 425.283)">
    <tspan x="0" y="0" fill="gray" font-family="'AvenirNext-Heavy'" font-size="137.6361" letter-spacing="-8">BUS</tspan><tspan x="262.194" y="0" fill="gray" font-family="'AvenirNext-Heavy'" font-size="137.6361" letter-spacing="-11">IN</tspan><tspan x="400.241" y="0" fill="gray" font-family="'AvenirNext-Heavy'" font-size="137.6361" letter-spacing="-5">E</tspan><tspan x="477.729" y="0" fill="gray" font-family="'AvenirNext-Heavy'" font-size="137.6361" letter-spacing="-11">S</tspan><tspan x="551.638" y="0" fill="gray" font-family="'AvenirNext-Heavy'" font-size="137.6361" letter-spacing="-8">S</tspan><tspan x="628.3" y="0" fill="gray" font-family="'AvenirNext-Heavy'" font-size="137.6361"> </tspan><tspan x="-11.055" y="175.416" fill="gray" font-family="'AvenirNext-Heavy'" font-size="249.18">L</tspan><tspan x="125.744" y="175.416" fill="gray" font-family="'AvenirNext-Heavy'" font-size="249.18" letter-spacing="-14">A</tspan><tspan x="304.153" y="175.416" fill="gray" font-family="'AvenirNext-Heavy'" font-size="249.18" letter-spacing="-43">D</tspan><tspan x="456.65" y="175.416" fill="gray" font-family="'AvenirNext-Heavy'" font-size="249.18" letter-spacing="-14">Y</tspan>
  </text>
  <g stroke="#000" stroke-width="2" stroke-miterlimit="10">
    <path fill="#FF7BAC" d="M373.1 175.701s-1.035 13.556-6.365 21.653c0 0 4.488-22.026 1.057-29.112l5.308 7.459zm-8.639-10.332s1.262 19.839-5.32 33.909c0 0 2.344-26.181-.666-37.213l5.986 3.304zm-6.309-3.305s-.824 17.981-9.534 39.744c0 0 4.575-30.163.485-43.322l9.049 3.578zm-12.021-3.983s.035 26.621-9.783 47.067c0 0 4.911-42.512 2.128-48.585l7.655 1.518zm-8.06-1.519s-7.93 24.496-9.14 47.473c0 0-5.237-21.256 1.488-48.384l7.652.911zm-17.794-.874s-8.111 13.932-7.182 40.654c0 0-6.051-17.359-1.303-38.717l8.485-1.937z"/>
    <path fill="#FF7BAC" d="M320.277 155.688c-7.141 29.759 2.401 46.119 2.401 46.119-2.901-25.963 7.31-46.156 7.31-46.156l-9.711.037zm-25.517 17.896c-.452 9.565 3.299 16.078 3.299 16.078.982-15.791 2.682-24.663 2.682-24.663-4 4.126-5.981 8.585-5.981 8.585zm7.468-10.24c-1.065 2.33-.202 25.832 4.035 29.202-.837-25.355 5.53-34.921 5.53-34.921s-9.137 4.781-9.565 5.719z"/>
    <path fill="none" stroke-linecap="square" stroke-linejoin="bevel" d="M320.756 155.651c21.344-1.519 37.116 5.314 43.705 9.717 6.592 4.403 13.662 17.135 12.334 25.659-2.104 13.514-12.078 21.314-23.438 26.873-8.434 4.128-19.049 3.35-28.934 1.976-18.283-2.54-37.221-18.22-34.747-30.973 2.476-12.755 9.734-31.734 31.08-33.252"/>
  </g>
  <g fill="none" stroke="#000" stroke-width="2" stroke-linecap="round" stroke-linejoin="round" stroke-miterlimit="10">
    <path d="M208.64 217.605c.007 1.882-1.445 1.099-2.241 1.082-4.673-.106-9.349-.58-14.013-.464-7.382.182-14.603 1.737-21.878 2.928-9.887 1.618-18.985 5.85-28.614 8.037-9.359 2.127-18.639 4.827-28.258 5.849-4.508.479-8.727 2.57-13.19 3.232-7.882 1.171-13.448 5.638-18.213 11.562-2.941 3.656-4.046 8.161-5.904 12.326-3.76 8.432-5.804 17.454-9.057 26.033-3.355 8.848-7.356 17.461-10.516 26.396-3.556 10.052-8.921 19.363-11.841 29.687-2.195 7.762-6.441 14.747-9.025 22.399-.711 2.104-.979 4.085-1.014 6.202"/>
    <path clip-rule="evenodd" d="M433.134 127.36c2.914-2.984 2.409-7.055 3.333-10.658 1.386-5.411 1.415-11.029 2.19-16.54.527-3.748-.585-7.513-1.366-11.189-1.195-5.628-1.515-11.455-3.862-16.833-2.68-6.138-5.142-12.373-7.892-18.478-2.901-6.441-7.802-10.943-14.266-13.743-8.575-3.712-16.416-8.604-23.869-14.234-3.354-2.533-6.483-5.445-10.109-7.512-2.207-1.257-3.228-3.466-5.475-4.717-8.469-4.714-17.154-8.479-26.967-9.163-2.722-.19-5.41-.869-8.132-1.063-6.466-.463-12.287 2.04-17.571 5.156-4.997 2.946-9.566 6.75-13.795 10.812-3.753 3.606-6.588 7.632-7.495 13.119-.495 3.003-2.225 6.089-4.587 8.429-4.449 4.406-8.023 9.562-11.886 14.428-2.515 3.169-3.668 7.48-5.156 11.384-1.25 3.278-2.206 6.681-3.105 10.078-1.435 5.422-.695 11.071-1.352 16.504-1.038 8.593.584 17.474-2.616 25.802-2.091 5.443-2.156 11.128-2.576 16.818-.298 4.029-.785 8.073-1.596 12.06-1.241 6.102-1.99 12.291-2.199 18.497-.285 8.418-2.958 16.304-4.781 24.39-1.253 5.559-2.475 11.074-.146 16.85 1.681 4.168-1.629 8.853-6.048 9.821-.596.131-2.006-.167-1.694 1.347m161.437-37.274c-1.547 2.505-1.402 5.375-1.654 8.13-.554 6.064-.933 12.145-1.448 18.213-.135 1.592-.852 3.072-1.555 4.47-1.792 3.56-1.879 6.789.667 10.157 1.486 1.966 2.278 4.449 3.441 6.67.688 1.312.596 2.404-.264 3.668-2.731 4.017-4.552 8.521-5.713 13.169-3.635 14.545-8.192 28.812-12.487 43.159-.944 3.153-2.464 6.217-1.546 9.821.493 1.934-1.443 3.589-1.934 5.562-1.841 7.394-3.232 14.834-3.902 22.435-.38 4.321-1.283 8.596-1.907 12.897-1.99 13.709-6.545 26.637-11.35 39.571-3.191 8.588-6.521 17.127-9.713 25.716-2.906 7.82-6.367 15.438-9.147 23.299-3.103 8.774-7.063 17.248-9.312 26.322m-14.294-165.076c.081 2.83-1.637 5.089-2.605 7.535-3.48 8.791-7.639 17.3-11.152 26.087-2.66 6.652-6.74 12.602-9.773 19.073-3.584 7.647-6.648 15.495-9.324 23.517-1.411 4.231-3.809 8.137-5.191 12.375-2.683 8.224-6.747 15.88-9.485 24.071-1.434 4.288-1.292 8.557-.554 12.905.186 1.098.25 2.252.138 3.357-.588 5.794.461 11.44 1.424 17.099m128.92-204.034c.587.225 1.045.456 1.438 1.098 3.646 5.936 8.57 10.796 13.414 15.72 1.861 1.891 4.366 2.917 6.745 3.235 4.73.633 8.557 3.183 12.204 5.617 3.665 2.447 7.224 4.871 11.301 6.608 3.946 1.682 7.342 4.383 10.943 6.691 2.439 1.563 4.979 2.757 7.847 3.387 4.513.991 8.086 3.862 11.767 6.428 5.449 3.799 11.399 6.751 17.019 10.218 5.14 3.171 10.54 5.488 16.062 7.712 4.804 1.935 6.844 6.292 8.328 10.668 2.811 8.286 6.962 16.041 9.551 24.374 2.808 9.043 5.511 18.116 7.436 27.429 2.108 10.208 3.761 20.521 6.61 30.576.901 3.179.063 6.538.796 9.817.797 3.569 1.017 7.27 1.472 10.914.129 1.028.072 1.956-1.396 1.681"/>
    <path clip-rule="evenodd" d="M411.553 177.808c.33 1.136-.888 2.68 1.111 3.391 3.453 1.227 5.552 1.35 6.628-.919 2.388-5.033 6.09-9.106 9.013-13.723 2.544-4.018 3.514-8.661 4.021-13.408.572-5.352 1.244-10.695 2.312-15.986.619-3.067.417-6.425-1.369-8.855-1.545-2.104-4.271-3.373-6.533-4.941-3.864-2.679-7.594-3.275-12.135-1.709-5.025 1.733-8.106-.498-10.091-6.054-1.024-2.868-1.003-5.823-.875-8.698.44-9.937.544-19.83-.858-29.719-.562-3.96-.8-7.95-2.146-11.767-2.063-5.851-5.641-10.574-10.97-13.679-6.215-3.622-11.887-8.181-18.739-10.725-7.127-2.646-13.464-6.89-20.227-10.267-4.524-2.259-9.314-3.812-14.522-4.396-10.119-1.133-19.749 1.051-29.44 3.198-2.81.623-5.349 2.406-8.408 1.959m-.56-.002c-1.505-.636-2.752-.136-3.927.837-3.65 3.023-7.823 5.073-12.333 6.438-3.778 1.144-6.947 3.187-9.827 5.875-5.833 5.442-10.325 11.68-11.86 19.647-1.219 6.325-2.373 12.675-3.193 19.061-.724 5.637 1.127 11.115 2.339 16.493 1.65 7.324 2.835 14.793 5.394 21.916.526 1.462 1.208 2.469 2.579 3.063M390.253 295.52c-.954-.119-1.841-.46-2.514-1.13-7.214-7.183-14.44-14.354-21.039-22.124-.609-.718-1.177-1.439-1.71-2.225-1.481-2.18-2.244-2.219-4.166-.587-4.295 3.646-8.521 7.38-12.928 10.887-1.806 1.438-1.397 3.015-.764 4.512 2.515 5.931 2.63 12.337 3.918 18.507 1.493 7.149 1.189 14.404 1.233 21.589.048 7.746-.094 15.533-1.149 23.278-.386 2.829-.674 5.749-.755 8.669-.271 9.815-1 19.617-1.286 29.432-.278 9.524-.245 19.058-.313 28.586-.042 5.736-.58 11.428-1.408 17.097M282.63 239.747c-1.53 1.227-1.624 3.272-1.818 4.782-.716 5.565-3.45 10.604-3.823 16.235-.303 4.562-1.458 9.007-2.495 13.452-.37 1.585-1.094 2.902-2.123 4.288-2.252 3.033-2.567 6.892-2.875 10.572-.425 5.091-1.435 10.091-2.219 15.118-.583 3.735-1.099 7.497-1.367 11.23-.637 8.854-1.206 17.716-1.362 26.616-.145 8.214-.33 16.447-.617 24.668-.235 6.698-.978 13.289-1.94 19.911-.751 5.168-1.81 10.416-1.169 15.674.671 5.506.302 11.099 1.58 16.554.332 1.417.114 2.981.034 4.472-.105 1.939.199 3.795.857 5.606m142.654-208.237c-2.897 1.794-3.942 5.065-5.774 7.646-3.537 4.98-7.609 9.226-12.715 12.546-3.298 2.145-5.897 5.215-9.269 7.254-5.392 3.262-11.239 5.572-17.1 7.829-.42.161-.764.318-1.112.59-5.569 4.33-11.875 2.111-17.93 1.939-2.906-.082-5.806-.621-8.689.172m-83.519-40.918c-1.985-.532-4.216-.155-5.93-1.774-.346-.326-1.274-.126-1.916-.035-5.421.772-10.874 1.394-16.248 2.419-5.73 1.093-11.397 1.275-17.106.09M377.36 110.544c-.374 0-.879.16-1.102-.024-4.937-4.073-11.238-5.19-16.848-7.797-2.409-1.12-4.917-2.006-7.547-2.586-2.978-.657-5.41.165-7.295 2.84m-37.554 158.35c-.918-.859-1.663-1.852-2.783-2.554-7.112-4.459-13.201-10.052-18.245-16.779-1.355-1.809-3.561-2.664-4.379-5.273-.703-2.239-2.735-4.291-4.638-5.875-3.433-2.857-6.058-6.373-8.549-9.935-2.114-3.023-4.595-5.76-6.576-8.882-.763-1.203-1.876-2.281-3.317-2.832m74.551 50.449c.024-.479.11-1.126-.56-1.101-6.131.242-12.103-1.638-18.216-1.377-1.852.079-3.566.66-4.806 2.451-3.609 5.215-8.407 9.251-13.72 12.599-5.228 3.293-9.534 7.663-14.266 11.534-.69.564-1.157 1.476-2.245 1.397"/>
    <path clip-rule="evenodd" d="M308.415 262.168c2.629 1.669 4.668 3.894 6.471 6.428 3.278 4.606 7.887 8.003 11.48 12.339 1.382 1.667 2.226 3.289 1.737 5.631-.464 2.222.421 2.778 2.732 2.228m36.996-167.04c-.31-1.284-1.097-2.095-2.218-2.839-3.272-2.173-6.547-4.419-10.671-4.122-4.149.298-8.443-.115-12.419 1.893 1.938 3.367 5.328 3.674 8.497 3.867 3.496.213 6.822.833 10.09 2.028 2.061.753 4.244 1.226 6.13-.303 1.104-.895 2.072-.295 3.113-.243m-60.817-24.944c.048-.795-.381-.961-1.113-1.153-7.954-2.087-15.904-2.81-23.808.095-.778.287-1.516.102-2.299.414-1.246.496-1.528 1.186-1.368 2.326m22.983 15.414c-1.037-1.195-2.279-1.795-3.916-2.018-2.894-.394-5.696-1.562-8.697-.788-.46.119-1.107.027-1.373.31-2.365 2.519-5.69 1.25-8.436 2.216m29.148.56c-3.577.492-7.003 1.299-10.416 2.689-4.809 1.958-9.071.14-12.566-3.53m68.666 145.459c.61 2.399 2.948 3.424 4.245 5.297.808 1.166 1.909 2.111 1.92 3.672m-88.564 9.529c2.535 1.953 2.701 5.485 5.044 7.567.905.804-.552 1.466-.14 2.241m-8.548 139.574c-1.682.467-3.365.928-5.044 1.402-2.328.658-3.703 2.275-4.485 4.483m47.085-317.542c-.281 1.181 1.248 1.868.841 3.083"/>
  </g>
</svg>